<svg xmlns="http://www.w3.org/2000/svg" xmlns:xlink="http://www.w3.org/1999/xlink" preserveAspectRatio="xMidYMid" width="1024" height="1024" viewBox="0 0 512 512">
  <defs>
    <style>
      .cls-1 {
        fill: #000;
        fill-rule: evenodd;
      }
    </style>
  </defs>
  <path d="M440.083,478.005 L69.931,478.005 C45.121,478.005 25.009,456.989 25.009,431.064 L25.009,91.212 C25.009,65.288 45.121,44.272 69.931,44.272 L104.071,44.741 L104.071,93.559 C104.071,114.558 120.362,131.582 140.457,131.582 C160.553,131.582 176.844,114.558 176.844,93.559 L176.844,44.741 L336.764,44.741 L336.764,93.559 C336.764,114.558 353.054,131.582 373.150,131.582 C393.246,131.582 409.536,114.558 409.536,93.559 L409.536,44.741 L440.083,44.272 C464.892,44.272 485.004,65.288 485.004,91.212 L485.004,431.064 C485.004,456.989 464.892,478.005 440.083,478.005 ZM107.228,348.271 L107.228,342.486 C90.714,351.056 101.661,369.537 107.125,370.425 C121.281,363.698 99.622,395.004 168.289,394.683 C214.018,390.024 179.593,369.548 219.469,354.318 C219.802,339.561 213.786,335.426 203.657,333.936 L203.657,348.271 L107.228,348.271 ZM366.682,232.137 C366.682,232.137 384.947,251.618 417.087,207.171 C385.437,208.376 366.682,232.137 366.682,232.137 ZM448.188,354.288 C438.058,369.794 424.473,378.665 410.419,382.272 C409.949,379.229 409.471,375.960 409.012,372.409 C408.648,369.592 407.927,367.102 406.900,364.892 C437.038,349.978 437.183,319.579 437.408,317.891 C433.014,339.617 420.514,354.356 405.517,362.380 C390.108,338.400 330.480,354.694 283.420,355.596 C283.466,355.281 291.100,366.269 287.834,381.111 C278.655,352.728 257.563,346.995 257.563,346.995 L262.560,323.719 L266.484,335.012 L281.748,319.325 L283.212,327.951 L298.336,314.377 L299.660,325.117 L316.806,311.716 L318.269,320.343 C318.269,320.343 354.686,315.010 383.373,284.057 C411.659,245.830 374.742,274.775 351.966,273.112 C348.656,277.501 335.254,290.984 335.254,290.984 L333.316,274.813 L313.080,298.808 L311.142,282.636 L294.203,303.694 L292.492,284.337 L266.115,307.838 L264.403,288.481 C264.403,288.481 246.029,302.304 237.003,319.724 C236.969,293.290 224.320,265.504 224.320,265.504 C224.320,265.504 233.724,267.376 236.028,272.887 C241.260,260.985 256.289,241.160 266.696,239.399 C258.310,249.038 258.584,258.359 259.377,257.896 C299.719,218.334 346.638,236.982 349.009,193.355 C348.566,188.241 358.843,175.865 376.857,165.397 L54.431,165.397 L54.431,446.772 L184.658,446.772 C174.708,440.039 180.152,427.103 159.665,422.098 C131.473,415.211 113.717,443.378 97.270,386.590 C65.980,365.371 84.880,330.887 107.228,330.901 L107.228,231.110 L203.657,231.110 L203.657,327.371 C232.740,322.369 240.263,352.320 237.484,365.801 C245.085,389.743 216.356,388.591 201.428,407.151 C224.647,423.053 241.773,435.593 254.436,446.772 L400.276,446.772 C411.340,429.841 414.297,420.047 413.942,408.633 C437.951,409.785 453.150,394.060 454.270,393.161 C440.817,402.545 426.794,406.080 413.768,405.440 C413.316,399.670 412.174,393.313 410.903,385.352 C437.916,379.138 447.429,355.640 448.188,354.288 ZM149.665,362.639 C133.698,357.141 126.499,379.165 139.329,374.698 C144.481,372.904 163.373,386.111 153.110,388.480 C142.890,390.839 133.367,388.455 125.548,383.312 C101.255,367.333 139.062,345.856 156.556,359.193 C163.018,364.120 163.527,377.058 163.446,376.421 C163.250,374.880 163.143,367.280 149.665,362.639 ZM376.962,115.432 L368.804,115.432 C360.795,115.432 354.304,108.940 354.304,100.932 L354.304,50.500 C354.304,42.492 360.795,36.000 368.804,36.000 L376.962,36.000 C384.971,36.000 391.462,42.492 391.462,50.500 L391.462,100.932 C391.462,108.940 384.971,115.432 376.962,115.432 ZM143.759,115.432 L135.600,115.432 C127.592,115.432 121.100,108.940 121.100,100.932 L121.100,50.500 C121.100,42.492 127.592,36.000 135.600,36.000 L143.759,36.000 C151.767,36.000 158.259,42.492 158.259,50.500 L158.259,100.932 C158.259,108.940 151.767,115.432 143.759,115.432 Z" class="cls-1"/>
</svg>
