<svg xmlns="http://www.w3.org/2000/svg" width="2188" height="540" viewBox="0 0 2188 540">
  <defs>
    <style>
      .cls-1 {
        fill: #fff;
        fill-rule: evenodd;
      }
    </style>
  </defs>
  <path id="FANTASY_CALENDAR" data-name="FANTASY CALENDAR" class="cls-1" d="M561.457,482.017c0,31.579-24.519,57.178-54.765,57.178H55.433c-30.246,0-54.765-25.6-54.765-57.178V68.052c0-31.578,24.519-57.178,54.765-57.178l41.621,0.572V70.91c0,25.578,19.86,46.314,44.359,46.314s44.359-20.735,44.359-46.314V11.446H380.734V70.91c0,25.578,19.86,46.314,44.359,46.314s44.359-20.735,44.359-46.314V11.446l37.24-.572c30.246,0,54.765,25.6,54.765,57.178M36.537,158.414h488.6V501.15H36.537V158.414Zm181.925,80.044V381.169H100.9V238.458H218.461Zm19.63,290.025a155.779,155.779,0,0,0-18.472-22.2c-45.924-.111-20.421-26.8-54.79-35.186s-56.016,25.92-76.067-43.251c-47.861-32.43.6-90.3,32.834-58.683-47.6,3.42-29.071,37.652-20.818,38.992,17.257-8.194-9.149,29.939,74.565,29.549,55.749-5.676,13.782-30.617,62.4-49.169,0.589-26.055-15.085-24.93-38.721-26.2,51.585-25.115,64.622,21.1,60.683,40.191,9.266,29.163-25.758,27.759-43.956,50.367,46.3,31.681,72.752,52.415,87.968,72.838m234.964-4.261s-92.832-1.733-90.566-5.79c36.6-50.547,27.113-55.578,20.7-105.105-5.991-46.287-89.1-21.706-153.112-20.48,0.057-.384,9.364,13,5.382,31.079-11.191-34.573-36.905-41.556-36.905-41.556l6.093-28.352,4.784,13.756,18.608-19.108,1.784,10.508,18.439-16.535,1.614,13.082,20.9-16.323,1.784,10.508s44.4-6.5,79.369-44.2c34.484-46.564-10.523-11.306-38.289-13.332-4.035,5.346-20.374,21.77-20.374,21.77l-2.363-19.7-24.669,29.228-2.363-19.7-20.65,25.65-2.087-23.578L294.6,331.918l-2.087-23.578s-22.4,16.838-33.4,38.056c-0.041-32.2-15.462-66.044-15.462-66.044s11.465,2.28,14.274,8.993c6.379-14.5,24.7-38.646,37.387-40.79-10.222,11.74-9.888,23.094-8.922,22.53,49.182-48.19,106.381-25.475,109.272-78.615-0.7-8.139,20.872-31.378,56.68-44.8,24.932-9.348,56.763-13.937,92.775-5.36m-127.91,97.4s22.865-28.942,61.45-30.41C439.475,263.438,417.207,239.708,417.207,239.708Zm0.238,187.207c62.054,57.02,106.091,8.852,106.625,8.879-38.8,27.1-81.523,14.4-102.754-11.563m-1.107-12.958c84.264-1.613,82.839-66.857,83.244-67.205-9.339,46.385-49.01,66.708-82.3,62.591m-6.74,13.368c78.872,29.7,101.711-31.436,102.215-31.61C490.775,428.048,446.4,432.239,417,416.091m-293.762,7.76a42.672,42.672,0,0,0,33.6,6.3c12.511-2.885-10.521-18.972-16.8-16.787-15.642,5.441-6.866-21.386,12.6-14.689,16.432,5.653,16.562,14.91,16.8,16.787,0.1,0.776-.522-14.983-8.4-20.984C139.712,378.227,93.621,404.388,123.237,423.851ZM132.315,0.8h16.3a14.5,14.5,0,0,1,14.5,14.5V83.053a14.5,14.5,0,0,1-14.5,14.5h-16.3a14.5,14.5,0,0,1-14.5-14.5V15.3A14.5,14.5,0,0,1,132.315.8Zm284.3,0h16.3a14.5,14.5,0,0,1,14.5,14.5V83.053a14.5,14.5,0,0,1-14.5,14.5h-16.3a14.5,14.5,0,0,1-14.5-14.5V15.3A14.5,14.5,0,0,1,416.617.8ZM768.848,120.585H666.892V60.259H779.115v-48.8H603.666v262.2h63.226V169.207H768.848V120.585ZM935.11,273.653h67.91l-96.911-262.2H846.665l-96.191,262.2h67.55l15.131-48.982H919.8ZM876.387,84.93l28.281,90.94H848.286ZM1241.16,11.458h-63.05V174.609L1085.34,11.458h-63.23v262.2h63.23V110.5l92.95,163.152h62.87V11.458Zm245.88,0H1267.82v48.8h77.27V273.653h63.23V60.259h78.72v-48.8Zm169.32,262.2h67.91l-96.91-262.2h-59.44l-96.19,262.2h67.55l15.13-48.982h86.64ZM1597.64,84.93l28.28,90.94h-56.38Zm271.91,138.03q-9.1,6.753-24.77,6.753-24.495,0-35.39-9.994t-10.9-31.064h-63.41q0,25.932,13.06,45.83t38.91,31.334q25.845,11.438,57.73,11.435,45.21,0,71.15-19.628t25.94-54.024q0-43.038-42.51-67.53-17.475-10.083-44.67-18.818t-38.01-16.927q-10.8-8.193-10.81-18.278,0-11.522,9.82-19t26.75-7.473q16.755,0,26.57,8.824t9.82,24.851h63.04q0-23.948-12.43-42.589T1894.59,17.94q-22.425-10.083-50.71-10.084-29,0-52.24,9.274t-35.93,25.931q-12.7,16.659-12.7,38.447,0,43.759,50.97,68.79,15.675,7.746,40.35,16.027,24.69,8.286,34.5,16.028t9.82,21.609Q1878.65,216.21,1869.55,222.96Zm152.3-211.5h-67.91l84.3,168.014v94.182h64.13V179.471l84.48-168.013h-68.27l-48.27,113.81ZM728.188,458.515q-0.616,19.056-10.453,27.813T689.3,495.087q-21.982,0-30.973-15.366t-8.992-51.172V412.722q0.461-33.037,9.838-48.1t29.513-15.06q19.829,0,29.513,8.913t10.3,29.351h53.8q-3.383-37.649-28.129-59.086t-65.482-21.436q-28.285,0-49.8,13.446t-32.971,38.109q-11.452,24.664-11.452,57.549v11.064q0,52.4,25.363,81.136T689.3,537.346q26.746,0,47.575-9.835t32.357-27.737q11.527-17.9,12.6-41.259H728.188Zm219.349,75.758h57.953l-82.7-223.74H872.064l-82.083,223.74h57.642l12.912-41.8h73.937Zm-50.11-161.044,24.133,77.6H873.447Zm178.3-62.7h-53.95v223.74h147.87V492.782h-93.92V310.533Zm255.48,88.82h-84.85V352.177h100.52V310.533H1192.4v223.74h154.18V492.782H1246.36V439.306h84.85V399.353Zm224.26-88.82h-53.8V449.756l-79.16-139.223h-53.95v223.74h53.95V395.05l79.32,139.223h53.64V310.533Zm107.76,223.74q29.055-.152,52.64-13.907a94.947,94.947,0,0,0,36.59-38.11q12.99-24.354,12.99-55.09v-10.3q-0.165-30.426-13.45-54.936a94.582,94.582,0,0,0-36.97-37.956q-23.67-13.444-53.34-13.446H1589.6v223.74h73.63Zm-1.54-182.1q23.82,0,36.28,16.442t12.45,48.866v9.681q0,32.58-12.45,49.1t-35.67,16.519h-18.75v-140.6h18.14Zm271.61,182.1h57.95l-82.7-223.74h-50.72l-82.08,223.74h57.64l12.91-41.8h73.94Zm-50.11-161.044,24.13,77.6h-48.11Zm247.02,161.044H2188v-2.308l-46.72-90.339q20.13-9.516,29.59-24.868t9.45-38.684q0-32.234-22.44-49.889-22.455-17.651-62.26-17.652h-88.07v223.74h53.95V455.134h29.2Zm-68.71-182.25h34.12q15.225,0,23.06,8.243t7.84,22.721q0,14.482-7.76,22.57t-23.14,8.087H2061.5V352.023Z"/>
</svg>
