<svg xmlns="http://www.w3.org/2000/svg" xmlns:xlink="http://www.w3.org/1999/xlink" preserveAspectRatio="xMidYMid" width="3072" height="64" viewBox="0 0 3072 64">
  <defs>
    <style>
      .cls-1 {
        fill: #fff;
      }

      .cls-1, .cls-4 {
        fill-rule: evenodd;
      }

      .cls-2, .cls-4 {
        fill: #1e1e1e;
      }

      .cls-3 {
        stroke: #000;
        stroke-width: 4px;
        fill: none;
      }
    </style>
  </defs>
  <path d="M3040.000,53.000 C3028.402,53.000 3019.000,43.598 3019.000,32.000 C3019.000,20.402 3028.402,11.000 3040.000,11.000 C3051.598,11.000 3061.000,20.402 3061.000,32.000 C3061.000,43.598 3051.598,53.000 3040.000,53.000 ZM2976.000,53.000 C2964.402,53.000 2955.000,43.598 2955.000,32.000 C2955.000,20.402 2964.402,11.000 2976.000,11.000 C2987.598,11.000 2997.000,20.402 2997.000,32.000 C2997.000,43.598 2987.598,53.000 2976.000,53.000 ZM2912.000,53.000 C2900.402,53.000 2891.000,43.598 2891.000,32.000 C2891.000,20.402 2900.402,11.000 2912.000,11.000 C2923.598,11.000 2933.000,20.402 2933.000,32.000 C2933.000,43.598 2923.598,53.000 2912.000,53.000 ZM2848.000,53.000 C2836.402,53.000 2827.000,43.598 2827.000,32.000 C2827.000,20.402 2836.402,11.000 2848.000,11.000 C2859.598,11.000 2869.000,20.402 2869.000,32.000 C2869.000,43.598 2859.598,53.000 2848.000,53.000 ZM2784.000,53.000 C2772.402,53.000 2763.000,43.598 2763.000,32.000 C2763.000,20.402 2772.402,11.000 2784.000,11.000 C2795.598,11.000 2805.000,20.402 2805.000,32.000 C2805.000,43.598 2795.598,53.000 2784.000,53.000 ZM2720.000,53.000 C2708.402,53.000 2699.000,43.598 2699.000,32.000 C2699.000,20.402 2708.402,11.000 2720.000,11.000 C2731.598,11.000 2741.000,20.402 2741.000,32.000 C2741.000,43.598 2731.598,53.000 2720.000,53.000 ZM2656.000,53.000 C2644.402,53.000 2635.000,43.598 2635.000,32.000 C2635.000,20.402 2644.402,11.000 2656.000,11.000 C2667.598,11.000 2677.000,20.402 2677.000,32.000 C2677.000,43.598 2667.598,53.000 2656.000,53.000 ZM2592.000,53.000 C2580.402,53.000 2571.000,43.598 2571.000,32.000 C2571.000,20.402 2580.402,11.000 2592.000,11.000 C2603.598,11.000 2613.000,20.402 2613.000,32.000 C2613.000,43.598 2603.598,53.000 2592.000,53.000 ZM2528.000,53.000 C2516.402,53.000 2507.000,43.598 2507.000,32.000 C2507.000,20.402 2516.402,11.000 2528.000,11.000 C2539.598,11.000 2549.000,20.402 2549.000,32.000 C2549.000,43.598 2539.598,53.000 2528.000,53.000 ZM2464.000,53.000 C2452.402,53.000 2443.000,43.598 2443.000,32.000 C2443.000,20.402 2452.402,11.000 2464.000,11.000 C2475.598,11.000 2485.000,20.402 2485.000,32.000 C2485.000,43.598 2475.598,53.000 2464.000,53.000 ZM2400.000,53.000 C2388.402,53.000 2379.000,43.598 2379.000,32.000 C2379.000,20.402 2388.402,11.000 2400.000,11.000 C2411.598,11.000 2421.000,20.402 2421.000,32.000 C2421.000,43.598 2411.598,53.000 2400.000,53.000 ZM2336.000,53.000 C2324.402,53.000 2315.000,43.598 2315.000,32.000 C2315.000,20.402 2324.402,11.000 2336.000,11.000 C2347.598,11.000 2357.000,20.402 2357.000,32.000 C2357.000,43.598 2347.598,53.000 2336.000,53.000 ZM2272.000,53.000 C2260.402,53.000 2251.000,43.598 2251.000,32.000 C2251.000,20.402 2260.402,11.000 2272.000,11.000 C2283.598,11.000 2293.000,20.402 2293.000,32.000 C2293.000,43.598 2283.598,53.000 2272.000,53.000 ZM2208.000,53.000 C2196.402,53.000 2187.000,43.598 2187.000,32.000 C2187.000,20.402 2196.402,11.000 2208.000,11.000 C2219.598,11.000 2229.000,20.402 2229.000,32.000 C2229.000,43.598 2219.598,53.000 2208.000,53.000 ZM2144.000,53.000 C2132.402,53.000 2123.000,43.598 2123.000,32.000 C2123.000,20.402 2132.402,11.000 2144.000,11.000 C2155.598,11.000 2165.000,20.402 2165.000,32.000 C2165.000,43.598 2155.598,53.000 2144.000,53.000 ZM2080.000,53.000 C2068.402,53.000 2059.000,43.598 2059.000,32.000 C2059.000,20.402 2068.402,11.000 2080.000,11.000 C2091.598,11.000 2101.000,20.402 2101.000,32.000 C2101.000,43.598 2091.598,53.000 2080.000,53.000 ZM2016.000,53.000 C2004.402,53.000 1995.000,43.598 1995.000,32.000 C1995.000,20.402 2004.402,11.000 2016.000,11.000 C2027.598,11.000 2037.000,20.402 2037.000,32.000 C2037.000,43.598 2027.598,53.000 2016.000,53.000 ZM1952.000,53.000 C1940.402,53.000 1931.000,43.598 1931.000,32.000 C1931.000,20.402 1940.402,11.000 1952.000,11.000 C1963.598,11.000 1973.000,20.402 1973.000,32.000 C1973.000,43.598 1963.598,53.000 1952.000,53.000 ZM1888.000,53.000 C1876.402,53.000 1867.000,43.598 1867.000,32.000 C1867.000,20.402 1876.402,11.000 1888.000,11.000 C1899.598,11.000 1909.000,20.402 1909.000,32.000 C1909.000,43.598 1899.598,53.000 1888.000,53.000 ZM1824.000,53.000 C1812.402,53.000 1803.000,43.598 1803.000,32.000 C1803.000,20.402 1812.402,11.000 1824.000,11.000 C1835.598,11.000 1845.000,20.402 1845.000,32.000 C1845.000,43.598 1835.598,53.000 1824.000,53.000 ZM1760.000,53.000 C1748.402,53.000 1739.000,43.598 1739.000,32.000 C1739.000,20.402 1748.402,11.000 1760.000,11.000 C1771.598,11.000 1781.000,20.402 1781.000,32.000 C1781.000,43.598 1771.598,53.000 1760.000,53.000 ZM1696.000,53.000 C1684.402,53.000 1675.000,43.598 1675.000,32.000 C1675.000,20.402 1684.402,11.000 1696.000,11.000 C1707.598,11.000 1717.000,20.402 1717.000,32.000 C1717.000,43.598 1707.598,53.000 1696.000,53.000 ZM1632.000,53.000 C1620.402,53.000 1611.000,43.598 1611.000,32.000 C1611.000,20.402 1620.402,11.000 1632.000,11.000 C1643.598,11.000 1653.000,20.402 1653.000,32.000 C1653.000,43.598 1643.598,53.000 1632.000,53.000 ZM1568.000,53.000 C1556.402,53.000 1547.000,43.598 1547.000,32.000 C1547.000,20.402 1556.402,11.000 1568.000,11.000 C1579.598,11.000 1589.000,20.402 1589.000,32.000 C1589.000,43.598 1579.598,53.000 1568.000,53.000 ZM1504.000,53.000 C1492.402,53.000 1483.000,43.598 1483.000,32.000 C1483.000,20.402 1492.402,11.000 1504.000,11.000 C1515.598,11.000 1525.000,20.402 1525.000,32.000 C1525.000,43.598 1515.598,53.000 1504.000,53.000 ZM1440.000,53.000 C1428.402,53.000 1419.000,43.598 1419.000,32.000 C1419.000,20.402 1428.402,11.000 1440.000,11.000 C1451.598,11.000 1461.000,20.402 1461.000,32.000 C1461.000,43.598 1451.598,53.000 1440.000,53.000 ZM1376.000,53.000 C1364.402,53.000 1355.000,43.598 1355.000,32.000 C1355.000,20.402 1364.402,11.000 1376.000,11.000 C1387.598,11.000 1397.000,20.402 1397.000,32.000 C1397.000,43.598 1387.598,53.000 1376.000,53.000 ZM1312.000,53.000 C1300.402,53.000 1291.000,43.598 1291.000,32.000 C1291.000,20.402 1300.402,11.000 1312.000,11.000 C1323.598,11.000 1333.000,20.402 1333.000,32.000 C1333.000,43.598 1323.598,53.000 1312.000,53.000 ZM1248.000,53.000 C1236.402,53.000 1227.000,43.598 1227.000,32.000 C1227.000,20.402 1236.402,11.000 1248.000,11.000 C1259.598,11.000 1269.000,20.402 1269.000,32.000 C1269.000,43.598 1259.598,53.000 1248.000,53.000 ZM1184.000,53.000 C1172.402,53.000 1163.000,43.598 1163.000,32.000 C1163.000,20.402 1172.402,11.000 1184.000,11.000 C1195.598,11.000 1205.000,20.402 1205.000,32.000 C1205.000,43.598 1195.598,53.000 1184.000,53.000 ZM1120.000,53.000 C1108.402,53.000 1099.000,43.598 1099.000,32.000 C1099.000,20.402 1108.402,11.000 1120.000,11.000 C1131.598,11.000 1141.000,20.402 1141.000,32.000 C1141.000,43.598 1131.598,53.000 1120.000,53.000 ZM1056.000,53.000 C1044.402,53.000 1035.000,43.598 1035.000,32.000 C1035.000,20.402 1044.402,11.000 1056.000,11.000 C1067.598,11.000 1077.000,20.402 1077.000,32.000 C1077.000,43.598 1067.598,53.000 1056.000,53.000 ZM992.000,53.000 C980.402,53.000 971.000,43.598 971.000,32.000 C971.000,20.402 980.402,11.000 992.000,11.000 C1003.598,11.000 1013.000,20.402 1013.000,32.000 C1013.000,43.598 1003.598,53.000 992.000,53.000 ZM928.000,53.000 C916.402,53.000 907.000,43.598 907.000,32.000 C907.000,20.402 916.402,11.000 928.000,11.000 C939.598,11.000 949.000,20.402 949.000,32.000 C949.000,43.598 939.598,53.000 928.000,53.000 ZM864.000,53.000 C852.402,53.000 843.000,43.598 843.000,32.000 C843.000,20.402 852.402,11.000 864.000,11.000 C875.598,11.000 885.000,20.402 885.000,32.000 C885.000,43.598 875.598,53.000 864.000,53.000 ZM800.000,53.000 C788.402,53.000 779.000,43.598 779.000,32.000 C779.000,20.402 788.402,11.000 800.000,11.000 C811.598,11.000 821.000,20.402 821.000,32.000 C821.000,43.598 811.598,53.000 800.000,53.000 ZM736.000,53.000 C724.402,53.000 715.000,43.598 715.000,32.000 C715.000,20.402 724.402,11.000 736.000,11.000 C747.598,11.000 757.000,20.402 757.000,32.000 C757.000,43.598 747.598,53.000 736.000,53.000 ZM672.000,53.000 C660.402,53.000 651.000,43.598 651.000,32.000 C651.000,20.402 660.402,11.000 672.000,11.000 C683.598,11.000 693.000,20.402 693.000,32.000 C693.000,43.598 683.598,53.000 672.000,53.000 ZM608.000,53.000 C596.402,53.000 587.000,43.598 587.000,32.000 C587.000,20.402 596.402,11.000 608.000,11.000 C619.598,11.000 629.000,20.402 629.000,32.000 C629.000,43.598 619.598,53.000 608.000,53.000 ZM544.000,53.000 C532.402,53.000 523.000,43.598 523.000,32.000 C523.000,20.402 532.402,11.000 544.000,11.000 C555.598,11.000 565.000,20.402 565.000,32.000 C565.000,43.598 555.598,53.000 544.000,53.000 ZM480.000,53.000 C468.402,53.000 459.000,43.598 459.000,32.000 C459.000,20.402 468.402,11.000 480.000,11.000 C491.598,11.000 501.000,20.402 501.000,32.000 C501.000,43.598 491.598,53.000 480.000,53.000 ZM416.000,53.000 C404.402,53.000 395.000,43.598 395.000,32.000 C395.000,20.402 404.402,11.000 416.000,11.000 C427.598,11.000 437.000,20.402 437.000,32.000 C437.000,43.598 427.598,53.000 416.000,53.000 ZM352.000,53.000 C340.402,53.000 331.000,43.598 331.000,32.000 C331.000,20.402 340.402,11.000 352.000,11.000 C363.598,11.000 373.000,20.402 373.000,32.000 C373.000,43.598 363.598,53.000 352.000,53.000 ZM288.000,53.000 C276.402,53.000 267.000,43.598 267.000,32.000 C267.000,20.402 276.402,11.000 288.000,11.000 C299.598,11.000 309.000,20.402 309.000,32.000 C309.000,43.598 299.598,53.000 288.000,53.000 ZM224.000,53.000 C212.402,53.000 203.000,43.598 203.000,32.000 C203.000,20.402 212.402,11.000 224.000,11.000 C235.598,11.000 245.000,20.402 245.000,32.000 C245.000,43.598 235.598,53.000 224.000,53.000 ZM160.000,53.000 C148.402,53.000 139.000,43.598 139.000,32.000 C139.000,20.402 148.402,11.000 160.000,11.000 C171.598,11.000 181.000,20.402 181.000,32.000 C181.000,43.598 171.598,53.000 160.000,53.000 ZM96.000,53.000 C84.402,53.000 75.000,43.598 75.000,32.000 C75.000,20.402 84.402,11.000 96.000,11.000 C107.598,11.000 117.000,20.402 117.000,32.000 C117.000,43.598 107.598,53.000 96.000,53.000 ZM32.000,53.000 C20.402,53.000 11.000,43.598 11.000,32.000 C11.000,20.402 20.402,11.000 32.000,11.000 C43.598,11.000 53.000,20.402 53.000,32.000 C53.000,43.598 43.598,53.000 32.000,53.000 Z" class="cls-1"/>
  <g>
    <circle cx="32" cy="32" r="21.438" class="cls-2"/>
    <circle cx="32" cy="32" r="23" class="cls-3"/>
  </g>
  <g>
    <path d="M103.580,11.974 C108.500,14.406 114.000,19.838 114.000,32.000 C114.000,44.162 108.500,49.594 103.580,52.026 C101.221,52.920 98.673,53.432 96.000,53.432 C84.164,53.432 74.568,43.836 74.568,32.000 C74.568,20.164 84.164,10.568 96.000,10.568 C98.673,10.568 101.221,11.080 103.580,11.974 Z" class="cls-4"/>
    <circle cx="96" cy="32" r="23" class="cls-3"/>
  </g>
  <g>
    <path d="M166.864,11.711 C171.583,14.010 177.000,19.392 177.000,32.000 C177.000,44.608 171.583,49.990 166.864,52.289 C164.707,53.018 162.404,53.432 160.000,53.432 C148.164,53.432 138.568,43.836 138.568,32.000 C138.568,20.164 148.164,10.568 160.000,10.568 C162.404,10.568 164.707,10.982 166.864,11.711 Z" class="cls-4"/>
    <circle cx="160" cy="32" r="23" class="cls-3"/>
  </g>
  <g>
    <path d="M227.734,10.914 C232.462,12.675 240.000,17.766 240.000,32.333 C240.000,46.033 233.336,51.069 228.610,52.922 C227.123,53.248 225.584,53.432 224.000,53.432 C212.164,53.432 202.568,43.836 202.568,32.000 C202.568,20.164 212.164,10.568 224.000,10.568 C225.276,10.568 226.519,10.700 227.734,10.914 Z" class="cls-4"/>
    <circle cx="224" cy="32" r="23" class="cls-3"/>
  </g>
  <g>
    <path d="M291.588,10.892 C296.026,12.600 303.000,17.541 303.000,31.750 C303.000,46.492 295.494,51.507 291.101,53.182 C290.086,53.330 289.056,53.432 288.000,53.432 C276.164,53.432 266.568,43.836 266.568,32.000 C266.568,20.164 276.164,10.568 288.000,10.568 C289.225,10.568 290.419,10.695 291.588,10.892 Z" class="cls-4"/>
    <circle cx="288" cy="32" r="23" class="cls-3"/>
  </g>
  <g>
    <path d="M354.694,10.756 C358.501,12.349 365.000,17.254 365.000,32.200 C365.000,46.708 358.874,51.570 355.032,53.193 C354.039,53.334 353.032,53.432 352.000,53.432 C340.164,53.432 330.568,43.836 330.568,32.000 C330.568,20.164 340.164,10.568 352.000,10.568 C352.915,10.568 353.810,10.644 354.694,10.756 Z" class="cls-4"/>
    <circle cx="352" cy="32" r="23" class="cls-3"/>
  </g>
  <g>
    <path d="M418.110,10.675 C421.304,12.187 427.000,17.018 427.000,32.250 C427.000,47.039 421.633,51.776 418.397,53.290 C417.609,53.378 416.811,53.432 416.000,53.432 C404.164,53.432 394.568,43.836 394.568,32.000 C394.568,20.164 404.164,10.568 416.000,10.568 C416.712,10.568 417.415,10.607 418.110,10.675 Z" class="cls-4"/>
    <circle cx="416" cy="32" r="23" class="cls-3"/>
  </g>
  <g>
    <path d="M481.698,10.654 C484.306,12.133 489.000,16.892 489.000,32.000 C489.000,47.108 484.306,51.867 481.698,53.346 C481.136,53.390 480.573,53.432 480.000,53.432 C468.164,53.432 458.568,43.836 458.568,32.000 C458.568,20.164 468.164,10.568 480.000,10.568 C480.573,10.568 481.136,10.610 481.698,10.654 Z" class="cls-4"/>
    <circle cx="480" cy="32" r="23" class="cls-3"/>
  </g>
  <g>
    <path d="M544.915,10.614 C546.811,12.180 551.000,17.298 551.000,32.000 C551.000,46.702 546.811,51.820 544.915,53.386 C544.609,53.399 544.309,53.432 544.000,53.432 C532.164,53.432 522.568,43.836 522.568,32.000 C522.568,20.164 532.164,10.568 544.000,10.568 C544.309,10.568 544.609,10.601 544.915,10.614 Z" class="cls-4"/>
    <circle cx="544" cy="32" r="23" class="cls-3"/>
  </g>
  <g>
    <path d="M608.575,10.597 C609.888,12.209 613.000,17.568 613.000,32.167 C613.000,46.631 609.944,51.824 608.610,53.401 C608.406,53.407 608.206,53.432 608.000,53.432 C596.164,53.432 586.568,43.836 586.568,32.000 C586.568,20.164 596.164,10.568 608.000,10.568 C608.194,10.568 608.382,10.592 608.575,10.597 Z" class="cls-4"/>
    <circle cx="608" cy="32" r="23" class="cls-3"/>
  </g>
  <g>
    <path d="M672.268,10.582 C673.002,12.350 675.000,18.423 675.000,32.167 C675.000,45.822 673.026,51.688 672.281,53.418 C672.186,53.419 672.095,53.432 672.000,53.432 C660.164,53.432 650.568,43.836 650.568,32.000 C650.568,20.164 660.164,10.568 672.000,10.568 C672.090,10.568 672.177,10.581 672.268,10.582 Z" class="cls-4"/>
    <circle cx="672" cy="32" r="23" class="cls-3"/>
  </g>
  <g>
    <path d="M736.086,10.573 C736.328,12.339 737.000,18.464 737.000,32.000 C737.000,45.536 736.328,51.661 736.086,53.427 C736.057,53.428 736.029,53.432 736.000,53.432 C724.164,53.432 714.568,43.836 714.568,32.000 C714.568,20.164 724.164,10.568 736.000,10.568 C736.029,10.568 736.057,10.572 736.086,10.573 Z" class="cls-4"/>
    <circle cx="736" cy="32" r="23" class="cls-3"/>
  </g>
  <g>
    <path d="M800.000,53.432 C788.164,53.432 778.568,43.836 778.568,32.000 C778.568,20.164 788.164,10.568 800.000,10.568 L800.000,53.432 Z" class="cls-4"/>
    <circle cx="800" cy="32" r="23" class="cls-3"/>
  </g>
  <g>
    <path d="M1496.463,52.048 C1488.347,48.995 1482.562,41.183 1482.562,32.000 C1482.562,22.817 1488.347,15.005 1496.463,11.952 C1491.532,14.373 1486.000,19.803 1486.000,32.000 C1486.000,44.197 1491.532,49.627 1496.463,52.048 Z" class="cls-4"/>
    <circle cx="1504" cy="32" r="23" class="cls-3"/>
  </g>
  <g>
    <path d="M1433.200,52.318 C1424.698,49.473 1418.562,41.460 1418.562,32.000 C1418.562,22.540 1424.698,14.527 1433.200,11.682 C1428.467,13.962 1423.000,19.334 1423.000,32.000 C1423.000,44.666 1428.467,50.038 1433.200,52.318 Z" class="cls-4"/>
    <circle cx="1440" cy="32" r="23" class="cls-3"/>
  </g>
  <g>
    <path d="M1371.431,52.938 C1361.789,50.843 1354.562,42.270 1354.562,32.000 C1354.562,21.428 1362.222,12.665 1372.290,10.905 C1367.563,12.658 1360.000,17.742 1360.000,32.333 C1360.000,46.072 1366.702,51.099 1371.431,52.938 Z" class="cls-4"/>
    <circle cx="1376" cy="32" r="23" class="cls-3"/>
  </g>
  <g>
    <path d="M1308.923,53.192 C1298.545,51.696 1290.562,42.792 1290.562,32.000 C1290.562,21.378 1298.296,12.584 1308.435,10.883 C1303.999,12.583 1297.000,17.517 1297.000,31.750 C1297.000,46.519 1304.534,51.526 1308.923,53.192 Z" class="cls-4"/>
    <circle cx="1312" cy="32" r="23" class="cls-3"/>
  </g>
  <g>
    <path d="M1244.988,53.202 C1234.578,51.734 1226.562,42.814 1226.562,32.000 C1226.562,21.068 1234.752,12.065 1245.327,10.747 C1241.523,12.331 1235.000,17.226 1235.000,32.200 C1235.000,46.733 1241.147,51.587 1244.988,53.202 Z" class="cls-4"/>
    <circle cx="1248" cy="32" r="23" class="cls-3"/>
  </g>
  <g>
    <path d="M1181.622,53.298 C1170.903,52.114 1162.562,43.035 1162.562,32.000 C1162.562,20.868 1171.049,11.722 1181.904,10.668 C1178.713,12.172 1173.000,16.994 1173.000,32.250 C1173.000,47.068 1178.388,51.794 1181.622,53.298 Z" class="cls-4"/>
    <circle cx="1184" cy="32" r="23" class="cls-3"/>
  </g>
  <g>
    <path d="M1118.314,53.352 C1107.265,52.490 1098.562,43.270 1098.562,32.000 C1098.562,20.730 1107.265,11.510 1118.314,10.648 C1115.708,12.119 1111.000,16.869 1111.000,32.000 C1111.000,47.131 1115.708,51.881 1118.314,53.352 Z" class="cls-4"/>
    <circle cx="1120" cy="32" r="23" class="cls-3"/>
  </g>
  <g>
    <path d="M1055.092,53.392 C1043.677,52.913 1034.562,43.533 1034.562,32.000 C1034.562,20.467 1043.677,11.087 1055.092,10.608 C1053.199,12.167 1049.000,17.280 1049.000,32.000 C1049.000,46.720 1053.199,51.833 1055.092,53.392 Z" class="cls-4"/>
    <circle cx="1056" cy="32" r="23" class="cls-3"/>
  </g>
  <g>
    <path d="M991.395,53.407 C979.838,53.084 970.562,43.635 970.562,32.000 C970.562,20.353 979.856,10.896 991.430,10.591 C990.120,12.196 987.000,17.549 987.000,32.167 C987.000,46.651 990.065,51.837 991.395,53.407 Z" class="cls-4"/>
    <circle cx="992" cy="32" r="23" class="cls-3"/>
  </g>
  <g>
    <path d="M925.000,32.167 C925.000,45.834 926.978,51.700 927.721,53.423 C916.012,53.273 906.562,43.746 906.562,32.000 C906.562,20.250 916.019,10.719 927.735,10.576 C927.003,12.335 925.000,18.405 925.000,32.167 Z" class="cls-4"/>
    <circle cx="928" cy="32" r="23" class="cls-3"/>
  </g>
  <g>
    <path d="M863.000,32.000 C863.000,45.553 863.674,51.675 863.915,53.433 C852.115,53.387 842.562,43.811 842.562,32.000 C842.562,20.189 852.115,10.613 863.915,10.567 C863.674,12.325 863.000,18.447 863.000,32.000 Z" class="cls-4"/>
    <circle cx="864" cy="32" r="23" class="cls-3"/>
  </g>
  <g>
    <path d="M3040.000,53.437 C3037.343,53.437 3034.810,52.932 3032.463,52.048 C3027.532,49.627 3022.000,44.197 3022.000,32.000 C3022.000,19.803 3027.532,14.373 3032.463,11.952 C3034.810,11.068 3037.343,10.563 3040.000,10.563 C3051.840,10.563 3061.438,20.160 3061.438,32.000 C3061.438,43.840 3051.840,53.437 3040.000,53.437 Z" class="cls-4"/>
    <circle cx="3040" cy="32" r="23" class="cls-3"/>
  </g>
  <g>
    <path d="M2976.000,53.437 C2973.620,53.437 2971.339,53.034 2969.200,52.318 C2964.467,50.038 2959.000,44.666 2959.000,32.000 C2959.000,19.334 2964.467,13.962 2969.200,11.682 C2971.339,10.966 2973.620,10.563 2976.000,10.563 C2987.840,10.563 2997.437,20.160 2997.437,32.000 C2997.437,43.840 2987.840,53.437 2976.000,53.437 Z" class="cls-4"/>
    <circle cx="2976" cy="32" r="23" class="cls-3"/>
  </g>
  <g>
    <path d="M2912.000,53.437 C2910.431,53.437 2908.905,53.258 2907.431,52.938 C2902.702,51.099 2896.000,46.072 2896.000,32.333 C2896.000,17.742 2903.563,12.658 2908.290,10.905 C2909.497,10.694 2910.732,10.563 2912.000,10.563 C2923.840,10.563 2933.438,20.160 2933.438,32.000 C2933.438,43.840 2923.840,53.437 2912.000,53.437 Z" class="cls-4"/>
    <circle cx="2912" cy="32" r="23" class="cls-3"/>
  </g>
  <g>
    <path d="M2848.000,53.437 C2846.952,53.437 2845.930,53.337 2844.923,53.192 C2840.534,51.526 2833.000,46.519 2833.000,31.750 C2833.000,17.517 2839.999,12.583 2844.435,10.883 C2845.597,10.688 2846.783,10.563 2848.000,10.563 C2859.840,10.563 2869.437,20.160 2869.437,32.000 C2869.437,43.840 2859.840,53.437 2848.000,53.437 Z" class="cls-4"/>
    <circle cx="2848" cy="32" r="23" class="cls-3"/>
  </g>
  <g>
    <path d="M2784.000,53.437 C2782.975,53.437 2781.974,53.341 2780.988,53.202 C2777.147,51.587 2771.000,46.733 2771.000,32.200 C2771.000,17.226 2777.523,12.331 2781.327,10.747 C2782.205,10.637 2783.093,10.563 2784.000,10.563 C2795.840,10.563 2805.438,20.160 2805.438,32.000 C2805.438,43.840 2795.840,53.437 2784.000,53.437 Z" class="cls-4"/>
    <circle cx="2784" cy="32" r="23" class="cls-3"/>
  </g>
  <g>
    <path d="M2720.000,53.437 C2719.195,53.437 2718.403,53.385 2717.622,53.298 C2714.388,51.794 2709.000,47.068 2709.000,32.250 C2709.000,16.994 2714.713,12.172 2717.904,10.668 C2718.594,10.601 2719.293,10.563 2720.000,10.563 C2731.840,10.563 2741.437,20.160 2741.437,32.000 C2741.437,43.840 2731.840,53.437 2720.000,53.437 Z" class="cls-4"/>
    <circle cx="2720" cy="32" r="23" class="cls-3"/>
  </g>
  <g>
    <path d="M2656.000,53.437 C2655.431,53.437 2654.872,53.396 2654.314,53.352 C2651.708,51.881 2647.000,47.131 2647.000,32.000 C2647.000,16.869 2651.708,12.119 2654.314,10.648 C2654.872,10.604 2655.431,10.563 2656.000,10.563 C2667.840,10.563 2677.438,20.160 2677.438,32.000 C2677.438,43.840 2667.840,53.437 2656.000,53.437 Z" class="cls-4"/>
    <circle cx="2656" cy="32" r="23" class="cls-3"/>
  </g>
  <g>
    <path d="M2592.000,53.437 C2591.694,53.437 2591.396,53.404 2591.092,53.392 C2589.199,51.833 2585.000,46.720 2585.000,32.000 C2585.000,17.280 2589.199,12.167 2591.092,10.608 C2591.396,10.596 2591.694,10.563 2592.000,10.563 C2603.840,10.563 2613.437,20.160 2613.437,32.000 C2613.437,43.840 2603.840,53.437 2592.000,53.437 Z" class="cls-4"/>
    <circle cx="2592" cy="32" r="23" class="cls-3"/>
  </g>
  <g>
    <path d="M2528.000,53.437 C2527.796,53.437 2527.598,53.413 2527.395,53.407 C2526.065,51.837 2523.000,46.651 2523.000,32.167 C2523.000,17.549 2526.120,12.196 2527.430,10.591 C2527.621,10.586 2527.808,10.563 2528.000,10.563 C2539.840,10.563 2549.437,20.160 2549.437,32.000 C2549.437,43.840 2539.840,53.437 2528.000,53.437 Z" class="cls-4"/>
    <circle cx="2528" cy="32" r="23" class="cls-3"/>
  </g>
  <g>
    <path d="M2464.000,53.437 C2463.906,53.437 2463.815,53.425 2463.721,53.423 C2462.978,51.700 2461.000,45.834 2461.000,32.167 C2461.000,18.405 2463.003,12.335 2463.735,10.576 C2463.824,10.575 2463.911,10.563 2464.000,10.563 C2475.840,10.563 2485.437,20.160 2485.437,32.000 C2485.437,43.840 2475.840,53.437 2464.000,53.437 Z" class="cls-4"/>
    <circle cx="2464" cy="32" r="23" class="cls-3"/>
  </g>
  <g>
    <path d="M2400.000,53.437 C2399.971,53.437 2399.943,53.433 2399.915,53.433 C2399.674,51.675 2399.000,45.553 2399.000,32.000 C2399.000,18.447 2399.674,12.325 2399.915,10.567 C2399.943,10.567 2399.971,10.563 2400.000,10.563 C2411.840,10.563 2421.437,20.160 2421.437,32.000 C2421.437,43.840 2411.840,53.437 2400.000,53.437 Z" class="cls-4"/>
    <circle cx="2400" cy="32" r="23" class="cls-3"/>
  </g>
  <g>
    <path d="M2336.000,53.437 L2336.000,10.563 C2347.840,10.563 2357.437,20.160 2357.437,32.000 C2357.437,43.840 2347.840,53.437 2336.000,53.437 Z" class="cls-4"/>
    <circle cx="2336" cy="32" r="23" class="cls-3"/>
  </g>
  <g>
    <path d="M1639.537,52.048 C1644.468,49.627 1650.000,44.197 1650.000,32.000 C1650.000,19.803 1644.468,14.373 1639.537,11.952 C1647.653,15.005 1653.438,22.817 1653.438,32.000 C1653.438,41.183 1647.653,48.995 1639.537,52.048 Z" class="cls-4"/>
    <circle cx="1632" cy="32" r="23" class="cls-3"/>
  </g>
  <circle cx="1568" cy="32" r="23" class="cls-3"/>
  <g>
    <path d="M1702.800,52.318 C1707.533,50.038 1713.000,44.666 1713.000,32.000 C1713.000,19.334 1707.533,13.962 1702.800,11.682 C1711.302,14.527 1717.438,22.540 1717.438,32.000 C1717.438,41.460 1711.302,49.473 1702.800,52.318 Z" class="cls-4"/>
    <circle cx="1696" cy="32" r="23" class="cls-3"/>
  </g>
  <g>
    <path d="M1764.569,52.938 C1769.298,51.099 1776.000,46.072 1776.000,32.333 C1776.000,17.742 1768.437,12.658 1763.710,10.905 C1773.778,12.665 1781.438,21.428 1781.438,32.000 C1781.438,42.270 1774.211,50.843 1764.569,52.938 Z" class="cls-4"/>
    <circle cx="1760" cy="32" r="23" class="cls-3"/>
  </g>
  <g>
    <path d="M1827.077,53.192 C1831.466,51.526 1839.000,46.519 1839.000,31.750 C1839.000,17.517 1832.001,12.583 1827.565,10.883 C1837.704,12.584 1845.438,21.378 1845.438,32.000 C1845.438,42.792 1837.455,51.696 1827.077,53.192 Z" class="cls-4"/>
    <circle cx="1824" cy="32" r="23" class="cls-3"/>
  </g>
  <g>
    <path d="M1891.012,53.202 C1894.853,51.587 1901.000,46.733 1901.000,32.200 C1901.000,17.226 1894.477,12.331 1890.673,10.747 C1901.248,12.065 1909.438,21.068 1909.438,32.000 C1909.438,42.814 1901.422,51.734 1891.012,53.202 Z" class="cls-4"/>
    <circle cx="1888" cy="32" r="23" class="cls-3"/>
  </g>
  <g>
    <path d="M1954.378,53.298 C1957.612,51.794 1963.000,47.068 1963.000,32.250 C1963.000,16.994 1957.287,12.172 1954.096,10.668 C1964.951,11.722 1973.438,20.868 1973.438,32.000 C1973.438,43.035 1965.097,52.114 1954.378,53.298 Z" class="cls-4"/>
    <circle cx="1952" cy="32" r="23" class="cls-3"/>
  </g>
  <g>
    <path d="M2017.686,53.352 C2020.292,51.881 2025.000,47.131 2025.000,32.000 C2025.000,16.869 2020.292,12.119 2017.686,10.648 C2028.735,11.510 2037.438,20.730 2037.438,32.000 C2037.438,43.270 2028.735,52.490 2017.686,53.352 Z" class="cls-4"/>
    <circle cx="2016" cy="32" r="23" class="cls-3"/>
  </g>
  <g>
    <path d="M2080.908,53.392 C2082.801,51.833 2087.000,46.720 2087.000,32.000 C2087.000,17.280 2082.801,12.167 2080.908,10.608 C2092.323,11.087 2101.438,20.467 2101.438,32.000 C2101.438,43.533 2092.323,52.913 2080.908,53.392 Z" class="cls-4"/>
    <circle cx="2080" cy="32" r="23" class="cls-3"/>
  </g>
  <g>
    <path d="M2144.605,53.407 C2145.935,51.837 2149.000,46.651 2149.000,32.167 C2149.000,17.549 2145.880,12.196 2144.570,10.591 C2156.144,10.896 2165.438,20.353 2165.438,32.000 C2165.438,43.635 2156.162,53.084 2144.605,53.407 Z" class="cls-4"/>
    <circle cx="2144" cy="32" r="23" class="cls-3"/>
  </g>
  <g>
    <path d="M2208.279,53.423 C2209.022,51.700 2211.000,45.834 2211.000,32.167 C2211.000,18.405 2208.997,12.335 2208.265,10.576 C2219.981,10.719 2229.438,20.250 2229.438,32.000 C2229.438,43.746 2219.988,53.273 2208.279,53.423 Z" class="cls-4"/>
    <circle cx="2208" cy="32" r="23" class="cls-3"/>
  </g>
  <g>
    <path d="M2272.085,53.433 C2272.326,51.675 2273.000,45.553 2273.000,32.000 C2273.000,18.447 2272.326,12.325 2272.085,10.567 C2283.885,10.613 2293.438,20.189 2293.438,32.000 C2293.438,43.811 2283.885,53.387 2272.085,53.433 Z" class="cls-4"/>
    <circle cx="2272" cy="32" r="23" class="cls-3"/>
  </g>
</svg>
