<?xml version="1.0" standalone="no"?>
<!DOCTYPE svg PUBLIC "-//W3C//DTD SVG 20010904//EN"
 "http://www.w3.org/TR/2001/REC-SVG-20010904/DTD/svg10.dtd">
<svg version="1.0" xmlns="http://www.w3.org/2000/svg"
 width="340.000000pt" height="340.000000pt" viewBox="0 0 340.000000 340.000000"
 preserveAspectRatio="xMidYMid meet">
<metadata>
Created by potrace 1.11, written by Peter Selinger 2001-2013
</metadata>
<g transform="translate(0.000000,340.000000) scale(0.100000,-0.100000)"
fill="#000000" stroke="none">
<path d="M1073 3250 c-48 -19 -58 -53 -58 -199 l0 -136 -190 0 c-218 1 -273
-10 -332 -66 -66 -64 -77 -98 -81 -252 -2 -76 -1 -149 2 -163 l6 -24 1274 0
c1037 1 1276 3 1285 14 17 21 12 270 -7 325 -21 62 -96 136 -155 153 -31 9
-108 13 -240 13 l-195 0 1 135 c0 148 -6 171 -53 195 -58 30 -127 9 -150 -44
-7 -17 -12 -83 -13 -158 l-2 -128 -455 -1 c-250 0 -461 2 -467 4 -10 3 -13 40
-13 138 l0 133 -31 36 c-25 28 -38 35 -68 34 -20 0 -46 -4 -58 -9z m200 -584
c2 -123 -142 -195 -239 -121 -18 14 -39 38 -47 54 -19 37 -15 111 7 142 9 13
17 21 17 19 1 -3 2 -33 3 -66 4 -101 57 -153 135 -132 60 16 81 50 81 138 l0
75 21 -33 c13 -19 21 -50 22 -76z m894 47 c0 -112 30 -153 110 -153 37 0 50 5
74 31 32 35 31 30 31 117 0 34 2 62 4 62 3 0 14 -20 25 -44 53 -122 -55 -242
-183 -204 -21 6 -46 20 -57 32 -26 28 -49 84 -46 116 2 25 31 100 38 100 2 0
4 -26 4 -57z"/>
<path d="M417 2333 c-12 -11 -8 -1760 4 -1806 15 -61 57 -117 114 -152 l48
-30 1116 0 c1071 0 1117 1 1150 19 44 24 98 81 119 126 15 32 17 118 19 935 2
703 0 901 -10 907 -15 9 -2551 11 -2560 1z m624 -213 c1 -3 2 -97 3 -210 l1
-205 -207 0 -208 0 0 57 c-1 32 -1 114 -1 183 0 69 0 137 1 153 l0 27 205 0
c113 0 206 -2 206 -5z m574 -205 l0 -210 -205 0 -205 0 -1 205 c-1 113 0 207
2 210 1 3 94 5 206 5 l203 0 0 -210z m581 0 l1 -210 -208 0 -209 0 -1 23 c-1
29 -1 368 0 385 1 9 48 12 209 12 l207 0 1 -210z m574 200 c1 -21 1 -342 0
-375 l0 -35 -208 0 -207 0 1 210 c1 116 2 210 3 210 100 5 411 -3 411 -10z
m-1740 -570 c13 -4 15 -35 15 -207 l0 -203 -208 -3 -207 -2 0 208 0 209 193 1
c105 1 199 -1 207 -3z m590 -206 l0 -209 -207 2 -208 3 -1 206 -1 206 208 1
209 0 0 -209z m576 -1 l1 -208 -209 0 -208 0 -1 28 c-1 40 -1 333 0 364 l1 28
208 -3 207 -2 1 -207z m575 183 c0 -22 0 -239 -1 -354 l0 -37 -207 2 -208 3
-1 200 c0 110 1 203 3 207 2 4 96 6 208 6 l205 0 1 -27z m-1776 -550 l50 -1 0
-207 0 -208 -198 0 c-109 0 -203 2 -208 6 -9 5 -11 59 -10 296 l1 112 113 3
c61 2 132 2 157 1 25 -1 68 -2 95 -2z m528 0 l97 -1 0 -208 0 -207 -208 0
-209 0 0 207 0 207 66 3 c36 2 86 2 111 1 25 -1 89 -2 143 -2z m528 0 l146 -1
-1 -207 -1 -208 -207 0 c-201 0 -208 1 -209 20 0 11 -1 103 -1 204 -1 208 -5
197 79 194 26 -1 114 -2 194 -2z m722 -203 c-1 -110 -5 -204 -8 -207 -11 -10
-396 -7 -404 4 -9 12 -8 386 1 400 4 6 82 9 210 7 l203 -3 -2 -201z"/>
</g>
</svg>
