<svg version="1" xmlns="http://www.w3.org/2000/svg" width="410.667" height="410.667" viewBox="0 0 308.000000 308.000000"><path d="M90.3 10c-4.2 2.5-4.9 5.6-4.8 20.4l.1 12.1-19.6-.1c-22-.1-26.6.9-32.8 6.8-6.7 6.5-7.6 9.6-8 26.7-.3 12.1-.1 15.5 1 16.2.7.5 58.3.9 128 .9 107-.1 126.8-.3 127.8-1.4 1.6-2 1.1-26.9-.7-32.2-1.9-5.7-7.4-11.8-13-14.5-4.4-2.1-6-2.3-25.3-2.4l-20.5-.1-.1-13.3c-.2-14.5-1-17.3-5.6-19.7-4.6-2.4-9-1.8-12.6 1.7-3 2.9-3.2 3.6-3.3 10.3 0 3.9-.1 10.2-.2 14.1l-.2 7-45.5.1c-25 0-46.1-.2-46.7-.4-1-.3-1.3-4-1.3-13.8V15.1l-3.1-3.6c-2.5-2.8-3.8-3.5-6.8-3.5-2 0-5 .9-6.8 2zm-4.8 52.7C85.2 73 88.7 78 96.2 78c7.8 0 10.8-4 10.8-14.7v-6.8l1.9 3c8.7 13.8-8.4 30-21.3 20.1C84 76.9 81 71.5 81 67.8c0-2.2 3.4-10.8 4.3-10.8.2 0 .3 2.6.2 5.7zm115.2 1.2c.1 10.2 3.4 14.1 11.9 14.1 4.2 0 9.4-4.5 9.5-8.2 0-1.3.1-4.7.1-7.6 0-2.8.1-5.2.4-5.2.2 0 1.1 1.5 2 3.2 4.1 7.9 1.3 16.6-6.6 20.6-13.1 6.7-26.8-8.2-19.2-21 .9-1.5 1.7-2.8 1.7-2.8.1 0 .2 3.1.2 6.9zM25.7 100.7c-.4.3-.7 40.3-.7 88.8 0 95.7-.1 93.5 5.5 100.9 1.6 2.1 4.9 4.9 7.4 6.4l4.6 2.7h223l4.6-2.7c5.5-3.2 9.1-7.7 11.2-14 1.4-4.1 1.6-15.3 1.6-93.1 0-78.6-.2-88.6-1.5-89.1-2.2-.8-254.9-.8-255.7.1zm62.8 41.2c0 12.6-.4 20.5-1 20.9-1.3.8-38.3.9-39.6.1-.9-.5-1.1-7.4-.9-35.4v-6h41.5v20.4zm57 .6v21H125l-20.5-.1-.1-20.4c-.1-11.3 0-20.7.2-21 .1-.3 9.4-.5 20.6-.5h20.3v21zm57.1-20.6c.8.1 1.1 6.3 1 20.8l-.1 20.8H162l-.1-3.5c-.1-4-.1-36 0-37.5.1-.8 34.3-1.3 40.7-.6zm58.6 20.3c.3 17.7.1 20.7-1.2 21-.8.2-10.3.3-21 .3h-19.5l-.1-20.5c0-11.3.1-20.7.2-21 .1-.3 9.5-.5 20.8-.5h20.5l.3 20.7zM88.3 180.4c.2.6.3 9.9.3 20.6l-.1 19.5-20.8.3-20.7.2-.1-3.5v-10-17.4l.1-10.8h20.4c14.1 0 20.6.3 20.9 1.1zm57.7 19.7V221h-41.7v-41.6l20.9-.2 20.8-.1v21zm57.7 0V221l-21-.2-21-.3.1-18.8c0-10.3.1-19.5.1-20.6.1-1.7 1.3-1.9 20.9-1.9h20.9v20.9zm57.3.1V221l-20.7-.2-20.8-.3-.1-19.5c0-10.7.3-20 .8-20.6.6-.8 7.1-1.2 20.8-1.1h20v20.9zM88.5 257.8v20.7H67.7c-20.1 0-20.7 0-20.7-2-.1-2.9-.1-30.3 0-35.2V237l19.3-.2c10.5-.2 19.9-.2 20.7 0 1.3.3 1.5 3.3 1.5 21zm55.3-20.8h2.2l-.2 20.7-.3 20.8h-41.1l-.1-20c0-11 .3-20.5.7-21 .7-.8 15.1-1 38.8-.5zm52.8-.1l7.1.1v20.5c0 11.3-.3 20.6-.6 20.6-.3.1-9.5.2-20.5.3-15.3.1-20-.1-20.3-1.1-.3-.7-.6-10.2-.7-21.1l-.1-19.7 14 .2c7.7.1 17.2.2 21.1.2zm64.1.5c.9.8.7 40.6-.2 40.9-.5.2-10 .3-21 .3l-20-.1v-41l5-.5c4.8-.5 35.7-.2 36.2.4z"/></svg>