<svg version="1" xmlns="http://www.w3.org/2000/svg" width="1226.667" height="1226.667" viewBox="0 0 920.000000 920.000000"><path d="M211.6 19.6c-3.5 1.1-6.5 3.1-10.5 7.2-9.2 9.2-8.9 6.6-8.7 72.2.2 62.8-.2 59.3 7.1 67.8 2.1 2.3 6 5.5 8.9 7 4.9 2.6 5.7 2.7 20.7 2.7 15.3 0 15.6 0 21.4-3 6.7-3.4 12.4-10.1 14.5-16.8 1.8-5.7 2.2-108.6.5-116.3-2.2-9.8-9.3-17.6-18.9-20.8-6.5-2.1-27.9-2.1-35 0zM679.3 19.3c-9.2 2.6-17.1 10.8-19.5 20.3-1.9 7.3-1.7 111.2.2 116.9 3.2 9.7 11.6 17.4 21.4 19.6 3 .6 10.3 1 17.6.7 11.1-.3 13.1-.7 17.5-3 5.9-3.1 10.4-7.6 13.6-13.8l2.4-4.5v-116l-2.5-4.9c-3-6-8.1-11-14-13.9-3.9-1.9-6.3-2.2-18.5-2.4-8.5-.1-15.6.3-18.2 1z"/><path d="M80 35.2c-9.3 1-19.4 4-28.4 8.4-9.9 5-15.1 8.8-23.7 17.3C15.7 73 8.2 86.2 2.8 104.5l-2.3 8L.3 465C.1 758.1.3 818.8 1.5 825c7.2 40.2 38.3 71 76.8 76 5.7.8 122 1 387.2.7 350.6-.3 379.4-.4 385-2 36.3-10.1 61.5-38 68-75.3 1.3-7.6 1.5-51 1.4-356.3 0-362.6.1-355.3-3.9-367.8-5-15.5-13.1-28.8-24.9-40.3-17.9-17.6-38.5-25.6-65.1-25.3-4.1 0-18.6.2-32.2.4l-24.8.3-.1 52.5c-.1 57.7-.1 55.9-2.5 65.1-6.8 26.5-26.4 46.4-52.9 54-10.1 2.9-28.3 2.3-38.7-1.3-25.6-8.8-44.7-31-49.9-57.8-.8-4.5-1.3-22.2-1.4-58.9-.2-28.9-.3-52.7-.4-53-.1-.4-317.5-.6-319.1-.1-.3 0-.5 23.2-.4 51.4 0 52.6-.4 60.4-4.1 71.2-10.6 30.7-38.5 51-69.5 50.4-32.4-.6-59.1-21.9-69.1-55-2.2-7.2-2.3-8.9-2.6-61.9-.2-30-.5-55-.7-55.6-.3-.7-9.1-1.2-27.8-1.4-15-.1-30.7-.3-34.8-.4-4.1-.1-10.9.2-15 .6zM699 277c3.8.1 4.2.2 2.5 1.2-25.6 14.2-53.3 42-53.6 53.8-.7 28.8-13.2 47.7-39.9 60.2-4.9 2.2-50.5 18.3-57.5 20.2-.5.2-1.9.7-3 1.1-19.8 7.8-32.4 13.9-44.9 21.7-7.6 4.7-22.7 16-27.2 20.3-1.2 1.1-3.4 3.1-4.9 4.5l-2.8 2.5.6-6c.8-7.7 3.8-15.1 9.8-24.3 5.2-7.9 4.9-8.2-3.6-3.9-9.1 4.5-22 17-33.1 32-7.5 10-16.6 24.5-17.8 28.5-.7 2.1-2.6 3.1-2.6 1.3 0-2.9-10.5-9.8-18.3-11.9-3.5-1-3.8-.9-3.2.6 15.9 40.3 23.8 73.9 24.4 103.1.1 3.3.3 3.1 5.2-5 2.8-4.6 7.4-11.3 10.2-14.9 6.5-8.3 25.4-27.6 33.5-34 5.7-4.7 6.2-4.9 6.3-2.8.1 2.4.2 3.5 1.3 15.8 1.9 21.2 2 21.5 3.4 19.5.4-.6 6.3-5.9 13.2-12 6.9-6 13-11.4 13.6-12 7.9-7.2 18.6-16.8 21.2-19l3.2-2.7.1 2.9c0 1.5.2 3.7.4 4.8.2 1.1.7 6 1.1 11 .4 4.9.8 9.7 1 10.5.1.8.3 3.3.4 5.5l.1 4 2.9-3.5c1.6-1.9 9.2-11.2 16.7-20.7 8.4-10.5 14-16.7 14.4-16 .4.7 1 4.2 1.3 7.8.4 3.6.8 7.6 1.1 9 .2 1.3.6 4.6 1 7.4.3 2.7.7 5.1.9 5.2.2.2 5.6-6.1 12.2-13.9 6.5-7.7 15.5-18.4 19.9-23.5l8-9.5.6 4.4c.4 2.3.9 7 1.3 10.3 1.5 14.2 1.9 16.5 2.6 16.5.7 0 23.7-23.9 29.9-31.2 2.3-2.7 3.9-3.6 5.9-3.5 9.7.5 24.6-2.8 47.2-10.3 22.2-7.3 26.8-8.4 30.6-7 5 1.9 2.4 9.5-9.6 27.4-19.4 28.9-59.9 58.3-102.1 74-12.4 4.5-26.1 8.6-32 9.3l-4.6.5-1.2-7.8c-.6-4.3-1.3-8-1.5-8.2-.4-.3-16 11.5-31.6 23.9l-2.5 2-1.5-10.6-1.5-10.6-11 9.8c-6 5.4-12.5 11.2-14.4 13-1.9 1.8-3.7 3.3-4.2 3.3-.4 0-1.2-3.3-1.9-7.3-.6-3.9-1.2-7.6-1.3-8-.1-.4-6.9 6-15.1 14.3-8.2 8.2-15.1 15-15.5 15-.4 0-2.2-4.7-4.1-10.5-3.5-10.7-4.3-11.3-5.4-4-.4 2.2-.9 4.8-1.2 5.7-.3.9-.7 2.5-.9 3.6-.2 1.1-1.2 6.2-2.4 11.3-1.1 5.2-2.2 10.6-2.5 12.2-.2 1.5-.7 3.6-1.1 4.6-.4 1.5.5 2.3 4.7 4.1 9.1 3.9 19 10.9 27.5 19.6 8.2 8.2 17.9 21.7 20.9 29.1.9 2.1 2.2 5.1 3 6.8.7 1.6 2 4.8 2.8 7l1.3 4 .8-5.9c1.8-14.1-1.5-32.1-7.7-42.4l-2-3.2 6.4-.1c3.5 0 8.3-.2 10.8-.4 20.3-1.2 26.1-1.6 27.7-1.9 1-.2 5.9-.7 10.8-1.1 10.8-.9 13.5-1.2 20-1.9 9.8-1.1 23.1-2.5 29.5-3.1 3.6-.3 8.3-.8 10.5-1 2.2-.2 8.5-.7 14-1 5.5-.4 11.4-.8 13-1 6.5-.8 42.4-.5 49.5.5 23.4 3.1 36.3 8.2 46.3 18.1 3.2 3.3 6.2 5.9 6.5 5.9 1.5 0 13.1-7.7 18.7-12.4 18.8-15.8 30.8-33.4 39.4-57.9 1.7-4.9 3.1-9.7 3.1-10.8 0-1 .4-1.9.8-1.9 1.3 0-2.2 17.3-5.3 26.6-3.2 9.6-10.2 23-15.8 30.3-8.6 11.2-23.2 23.7-34.2 29.3-2.2 1.1-4.1 2.1-4.2 2.2-.1.1.6 2.9 1.6 6.1 1.1 3.3 2.2 8.9 2.6 12.5.4 3.6 1 8.2 1.5 10.2.4 2 .5 3.9.2 4.2-1.5 1.6 3.4 1.6 8 0 12.2-4 23.8-10.1 35.8-18.8 6.8-4.9 21.9-20.1 26-26.1 3.8-5.5 4.7-5.8 2.1-.8-3.1 6.2-11.5 17.4-17.7 23.9-11.9 12.5-30 23.7-44.9 27.9-3.3 1-6.4 2.1-6.8 2.5-.4.4-.1 4.7.7 9.6 1.7 9.5 2.3 14 3.2 21.9 1 9.4.2 8.9 12.8 8.2 14-.8 30.9-4.4 40.1-8.6 1.1-.5 5.2-2.4 9-4.2 3.9-1.8 8.7-4.3 10.8-5.6 5.1-3.2 4.7-1.4-.5 2.4-20.9 14.9-41 21.9-65 22.6l-5.8.2-.1 5c-.1 5.1-.1 5.6-1.3 13.7-1.7 12-11.2 34.2-21.3 49.8l-4.9 7.5H458.1l-4.3-4.1c-2.4-2.3-9.9-8.6-16.8-14-12.7-10-14.4-11.3-23.5-18.1-5.3-4-38.9-28.1-46.5-33.3-2.5-1.7-6.7-4.7-9.4-6.6l-5-3.4 6.5-6.3c7.3-7.2 16.8-13.8 31.9-22.2 29.1-16.3 36.3-24.3 36.2-40 0-3.8-.5-8.1-1-9.5-.5-1.4-.8-7.5-.6-13.5.8-36.5-18.9-64.5-48.1-68.3-6.2-.8-9-.8-16-.1l-4 .4-.2-96-.1-96H164.5v99.2c0 54.5-.2 99.3-.5 99.6-.3.3-2.8.7-5.7 1.1-18.7 2.2-36.5 18-43.9 38.9-4.5 12.6-3.2 28.9 3.2 42.4 4.4 9.4 14.1 20.2 26.3 29.3.4.3 2.2 5.2 4 11 3.6 11.4 10.6 28.3 14.2 34.6 9 15.4 20.1 24.8 31.9 26.9 4.2.8 15.3.9 19.5.2 1.7-.3 5.5-.9 8.5-1.2 3-.4 6.4-1 7.5-1.2 1.1-.3 8.8-.7 17.1-.8 17.4-.4 24.8 1.1 37.1 7 9.6 4.7 14.9 10.8 21.8 24.9 3.3 6.7 6.9 12.7 9.4 15.1l3.9 4H59V558.3c0-186.5.3-281.2 1-281.5.7-.2 605.9 0 639 .2zm84 84c0 2.3-17.6 23.3-27.2 32.6-11.7 11.1-26 20.2-36.8 23.3-6.6 2-16.5 2.1-22.4.4-5.4-1.5-12.6-5.7-12.6-7.3 0-.5 3-3.9 6.8-7.5 21.6-21.3 50.8-36.6 77.2-40.4 13.2-1.9 15-2 15-1.1zM365.5 615.6c8.4 1.8 16.9 8.6 20 16.1 1.9 4.6 2.5 7.2 3.2 15.8l.5 7-5.7 2.4c-11.1 4.6-19 9.6-26 16.6-7.8 7.8-10.7 12.9-14 24.9-5.9 21.4-13.8 28.7-36.1 33.5-13.7 3-17 3.4-30.2 3.2-32.5-.2-57.9-5-74.9-14.1-11.8-6.3-18.4-13.6-23.7-26-1.5-3.6-3.5-7.3-4.3-8.3-1.8-1.9-5.5-2.2-8.4-.6-3.9 2-10.9-4.5-15.7-14.8-2.2-4.8-2.7-7.2-2.7-13.8 0-11.2 3.5-17.6 13.3-24.4 1.7-1.2 3.3-1.8 3.3-1.2.1.6.3 2.9.4 5.1.1 2.2.3 4.3.4 4.8 0 .4 43.3.7 96.1.8h96l.1-6.6v-14.3l-.1-7.7 2.8.5c1.5.2 4.1.7 5.7 1.1z"/><path d="M221.2 658c-20.4 4.9-35.4 18.2-35.6 31.5-.1 6.3 2.3 11.2 8.3 17.1 11.8 11.7 30.8 18.5 49.5 17.9 19.2-.7 23.3-5.7 13.1-15.9-8.9-8.9-21.6-14.5-29-12.8-7.8 1.7-11.8-.3-11.8-6 0-10 10.9-19.7 22.8-20.2 4.8-.2 10.3 1.2 18 4.8 8.7 4 14.6 9.2 17.5 15.2 1.2 2.4 2.3 4.4 2.5 4.4.2 0-.6-3.4-1.7-7.7-2.3-9.3-5.5-15.7-9.9-20.1-3-3.1-5.3-4.4-14.4-8.2-4.9-2-20.9-2-29.3 0z"/></svg>